<svg width="160px" height="53px" viewBox="0 0 160 53" version="1.1" xmlns="http://www.w3.org/2000/svg" xmlns:xlink="http://www.w3.org/1999/xlink">
    <g id="Symbols" stroke="none" stroke-width="1" fill="none" fill-rule="evenodd">
        <g id="header/dark_B">
            <g id="logo_full">
                <path d="M156.815709,18.2233115 L151.505455,12.3052678 L159.064145,9.67756831 C159.614434,9.46276798 159.908301,8.86464725 159.740815,8.30031571 C159.573328,7.73598418 159.000128,7.39291821 158.420945,7.51036066 L150.624582,9.13221858 L152.120727,1.30733333 C152.207885,0.725788139 151.834739,0.174186671 151.260681,0.0359767413 C150.686624,-0.102233188 150.101537,0.218664085 149.912145,0.775595628 L147.422255,8.30854645 L141.365818,3.1038306 C140.903676,2.73488353 140.234819,2.77929756 139.825988,3.20607978 C139.417156,3.632862 139.404289,4.30010587 139.796364,4.74219672 L145.105455,10.6579235 L137.5488,13.285623 C136.997313,13.4998908 136.702223,14.0986522 136.869486,14.6640062 C137.036748,15.2293603 137.610735,15.5732789 138.190836,15.4557268 L145.989236,13.8318415 L144.4928,21.657306 C144.404376,22.2394827 144.777686,22.7923456 145.352571,22.9306039 C145.927455,23.0688622 146.513106,22.746627 146.701382,22.1884645 L149.189818,14.6560929 L155.247418,19.8599399 C155.709403,20.2276275 156.377053,20.1827568 156.785209,19.7565899 C157.193365,19.3304229 157.206607,18.6643546 156.815709,18.2224426" id="Path" fill="#EBB91E"></path>
                <path d="M148.958255,23.0715082 C148.868909,23.3086073 148.754522,23.5355889 148.617018,23.7486339 L148.617018,47.9757158 C148.617018,48.8789403 148.256614,49.7451711 147.615089,50.3838472 C146.973565,51.0225233 146.103471,51.3813279 145.196218,51.3813279 L4.75374545,51.3813279 C3.84649289,51.3813279 2.97639902,51.0225233 2.33487458,50.3838472 C1.69335013,49.7451711 1.33294545,48.8789403 1.33294545,47.9757158 L1.33294545,14.6227869 C1.33294545,13.7194354 1.69342071,12.8530871 2.33506263,12.2143483 C2.97670455,11.5756096 3.84694715,11.2168084 4.75432727,11.2168852 L49.7303273,11.2168852 L49.7303273,9.86350273 L4.2432,9.86350273 C1.89981189,9.86350273 0,11.7548797 0,14.0878634 L0,48.4973169 C0,49.617687 0.447050145,50.6921697 1.24280451,51.484391 C2.03855887,52.2766123 3.11783339,52.7216776 4.2432,52.7216776 L145.745455,52.7216776 C146.870872,52.7216776 147.950221,52.276723 148.746038,51.4844934 C149.541855,50.6922638 149.988945,49.6177372 149.988945,48.4973169 L149.988945,19.9546448 L148.958255,23.0715082 Z" id="Path" fill="#414150"></path>
                <path d="M136.698182,11.1291311 L136.766545,11.104224 L140.334255,9.86350273 L69.0909091,9.86350273 L69.0909091,11.2168852 L136.518982,11.2168852 C136.579782,11.1896612 136.6336,11.1531694 136.698182,11.1291311 Z" id="Path" fill="#414150"></path>
                <path d="M64.9838545,45.45141 L64.9838545,41.9012787 C63.9095273,41.9012787 63.0402909,41.8227923 62.3761455,41.1801311 C61.712,40.5374699 61.3794909,39.6596393 61.3794909,38.544612 L61.3794909,1.56393443 L57.5528727,1.56393443 L57.5528727,39.1678689 C57.5528727,43.3576685 60.0298667,45.4521821 64.9838545,45.45141 Z" id="Path" fill="#414150"></path>
                <polygon id="Path" fill="#414150" points="122.957673 24.1622077 118.769455 24.1622077 128.012218 45.4514098 129.018764 45.4514098 138.483782 24.1622077 134.475927 24.1622077 128.656873 38.7577705"></polygon>
                <path d="M105.183709,27.1400546 L105.183709,24.2207104 L99.9648,24.2207104 L99.9648,18.4413934 L96.1390545,19.8622568 L96.1390545,24.2207104 L93.6418909,24.2207104 L93.6418909,27.1400546 L96.1390545,27.1400546 L96.1390545,38.9712186 C96.1390545,40.8404098 96.7264,42.3877395 97.9010909,43.6132077 C99.0313254,44.8274537 100.622003,45.5130669 102.2848,45.5027886 C103.325091,45.5027886 105.183709,45.4954317 105.183709,45.4954317 L105.183709,41.9670219 C105.183709,41.9670219 104.274036,41.9609399 103.831273,41.9609399 C102.475248,41.9609399 101.491976,41.5910018 100.881455,40.8511257 C100.270545,40.1120219 99.9648,39.2443279 99.9648,37.4930109 L99.9648,27.1400546 L105.183709,27.1400546 Z" id="Path" fill="#414150"></path>
                <path d="M52.5594182,34.8574918 C52.5594182,31.6716995 51.5915636,29.0072186 49.6823273,26.9344262 C47.6558545,24.7730109 44.9882182,23.6768087 41.7536,23.6768087 C38.5189818,23.6768087 35.8501818,24.7735902 33.8225455,26.9358743 C31.9153455,29.0077978 30.9477818,31.6731475 30.9477818,34.8574918 C30.9477818,38.0166393 31.9589818,40.6834372 33.9525818,42.7831639 C36.0081455,44.944 38.7042909,46.039623 41.9656727,46.039623 C44.5341091,46.039623 46.6679273,45.4238962 48.3074909,44.2095301 C49.6331115,43.2306558 50.7071473,41.9532715 51.4417455,40.4818634 L51.4594909,40.4459508 L48.0523636,39.0896721 L48.0215273,39.0772186 L47.9435636,39.2252131 C46.7325091,41.5250656 44.7909818,42.6426995 42.0090182,42.6426995 C39.9144727,42.6426995 37.9944727,41.9594918 36.7435636,40.7674262 C35.5251441,39.6006171 34.741755,38.055809 34.5221818,36.3869617 L52.5585455,36.3869617 L52.5594182,34.8574918 Z M48.7194182,33.1024098 L34.5326545,33.1024098 C34.7603013,31.4269501 35.5368227,29.8730659 36.7418182,28.6816885 C37.9636364,27.5672404 39.7917091,26.9286339 41.7550545,26.9286339 C43.5074494,26.8816838 45.2105827,27.5090432 46.5102545,28.6802404 C47.7391672,29.8551492 48.5198724,31.4186362 48.7188364,33.1032787 L48.7194182,33.1024098 Z" id="Shape" fill="#414150" fill-rule="nonzero"></path>
                <path d="M77.8926545,46.0028415 C80.7816727,46.0028415 83.2212364,44.8536393 85.1432727,42.5873825 C85.2410846,42.4747656 85.3982507,42.4333779 85.5392,42.4831202 C85.6798441,42.5346705 85.7734685,42.6678423 85.7739636,42.8170492 L85.7739636,45.4731311 L89.3934545,45.4731311 L89.3934545,25.7588689 L85.7739636,24.2430109 L85.7739636,26.939929 C85.7739933,27.0898707 85.6796353,27.2237521 85.5379977,27.2747332 C85.3963601,27.3257142 85.2378197,27.2828612 85.1415273,27.1675683 C83.2293818,24.8755355 80.7904,23.7133005 77.8926545,23.7133005 C74.8197818,23.7133005 72.2513455,24.7585301 70.2589091,26.8203169 C68.2341818,28.9136721 67.2497455,31.4964809 67.2497455,34.7161585 C67.2497455,37.9650874 68.2353455,40.6023443 70.2629818,42.7782404 C72.2548364,44.9179344 74.8218182,46.0028415 77.8926545,46.0028415 Z M73.1310545,29.3869071 C74.5160727,27.8785792 76.3243636,27.1136995 78.5058909,27.1136995 C80.5401968,27.0699097 82.4958512,27.8959966 83.8778182,29.3828525 C85.271748,30.8551984 86.0262502,32.8153958 85.9776,34.8380874 C86.0312375,36.8735317 85.2767768,38.8479817 83.8778182,40.3332896 C82.4962944,41.8208723 80.5404262,42.6473659 78.5058909,42.6033115 C76.2999273,42.6033115 74.4913455,41.8520437 73.1304727,40.370071 C71.7610491,38.8708781 71.0248212,36.903838 71.0749091,34.8780546 C71.0248439,32.8524294 71.7613173,30.8856015 73.1310545,29.3869071 Z" id="Shape" fill="#414150" fill-rule="nonzero"></path>
                <path d="M112.2848,16.1232951 C110.882198,16.1232951 109.745164,17.2552807 109.745164,18.6516557 C109.745164,20.0480308 110.882198,21.1800164 112.2848,21.1800164 C113.687402,21.1800164 114.824436,20.0480308 114.824436,18.6516557 C114.824436,17.2552807 113.687402,16.1232951 112.2848,16.1232951 Z" id="Path" fill="#414150"></path>
                <polygon id="Path" fill="#414150" points="114.215855 45.5255519 114.217891 24.2207104 110.351418 24.2207104 110.391564 27.334388 110.389527 45.5255519"></polygon>
                <path d="M24.6254545,26.8921421 C25.8276134,26.8958277 27.0043323,27.2371371 28.0203636,27.8768415 L29.7792,24.3243934 C28.3227083,23.902713 26.8125074,23.6934606 25.2957091,23.7031639 C22.4026182,23.7031639 19.9694545,24.874377 18.0395636,26.6705847 L18.0395636,24.2091257 L14.2103273,24.2091257 L14.2103273,45.491377 L18.0395636,45.491377 L18.0395636,34.1748634 C18.0187441,33.1096021 18.2128291,32.0510104 18.6103273,31.061765 C19.5452943,28.5587015 21.9430158,26.8966262 24.6254545,26.8921421 Z" id="Path" fill="#414150"></path>
            </g>
        </g>
    </g>
</svg>
