<svg id="home-star-small" width="34px" height="34px" viewBox="0 0 34 34" version="1.1" xmlns="http://www.w3.org/2000/svg" xmlns:xlink="http://www.w3.org/1999/xlink">
    <g id="Desktop" stroke="none" stroke-width="1" fill="none" fill-rule="evenodd">
        <g id="home_Tag_Selection-Copy" transform="translate(-1011.000000, -239.000000)" fill="#EBB91E">
            <path d="M1040.59494,265.977773 L1032.73577,257.21668 L1043.92366,253.326841 C1044.74286,253.013194 1045.17263,252.166336 1044.93478,251.312649 C1044.69212,250.447142 1043.88616,249.950012 1042.97176,250.118237 L1031.43055,252.519455 L1033.6454,240.935494 C1033.77969,240.072757 1033.2574,239.2786 1032.39792,239.057674 C1031.52306,238.832641 1030.6914,239.280653 1030.37633,240.148238 L1026.69086,251.300137 L1017.72671,243.594984 C1017.03975,243.04661 1016.08775,243.101363 1015.46529,243.728704 C1014.83322,244.37054 1014.80821,245.312244 1015.40342,246.020581 L1023.2619,254.779525 L1012.07676,258.669412 C1011.25629,258.983059 1010.82789,259.830585 1011.06499,260.682243 C1011.30696,261.548442 1012.11436,262.039364 1013.02739,261.882171 L1024.56995,259.478136 L1022.35507,271.062788 C1022.2167,271.926242 1022.74038,272.720423 1023.60195,272.942686 C1024.47534,273.167027 1025.30701,272.718346 1025.62404,271.849376 L1029.30754,260.69817 L1038.27376,268.401842 C1038.96151,268.952294 1039.9163,268.894818 1040.53168,268.268122 C1041.16588,267.626262 1041.19085,266.685275 1040.59496,265.977653" id="Path-Copy-2"></path>
        </g>
    </g>
</svg>
