<svg id="home-star-large" width="438px" height="718px" viewBox="0 0 438 718" version="1.1" xmlns="http://www.w3.org/2000/svg" xmlns:xlink="http://www.w3.org/1999/xlink">
    <g id="Desktop" stroke="none" stroke-width="1" fill="none" fill-rule="evenodd">
        <g id="home_Tag_Selection-Copy" transform="translate(-1002.000000, 0.000000)" fill="#EBB91E">
            <path d="M1698.24381,551.748471 L1513.35072,344.638214 L1776.55467,252.683291 C1795.82688,245.268755 1805.93746,225.249226 1800.34197,205.068254 C1794.63309,184.60786 1775.6723,172.855807 1754.16031,176.832617 L1482.64437,233.596859 L1534.75044,-40.2453508 C1537.90981,-60.6402638 1525.62265,-79.4139704 1505.40262,-84.6366036 C1484.82096,-89.9563285 1465.25537,-79.3654245 1457.84324,-58.8559206 L1371.13972,204.772463 L1160.25114,22.6243819 C1144.08979,9.66093942 1121.69317,10.955308 1107.04945,25.7855088 C1092.17949,40.9583532 1091.59106,63.2200246 1105.59388,79.9649651 L1290.4706,287.024419 L1027.33154,378.98047 C1008.02942,386.395006 997.951,406.430341 1003.529,426.563332 C1009.22152,447.040096 1028.21616,458.645382 1049.69599,454.929365 L1321.24352,398.098514 L1269.1369,671.957093 C1265.88161,692.368941 1278.20149,711.143212 1298.4706,716.397457 C1319.01785,721.700811 1338.58344,711.094102 1346.04183,690.551858 L1432.6991,426.939845 L1643.63619,609.052927 C1659.81616,622.06548 1682.27822,620.70676 1696.75551,605.8918 C1711.67568,590.718391 1712.26299,568.473655 1698.24437,551.745649" id="Path"></path>
        </g>
    </g>
</svg>
